<svg id="Group_4784" data-name="Group 4784" xmlns="http://www.w3.org/2000/svg" xmlns:xlink="http://www.w3.org/1999/xlink" width="138.376" height="108" viewBox="0 0 138.376 108">
  <defs>
    <clipPath id="clip-path">
      <rect id="Rectangle_1793" data-name="Rectangle 1793" width="138.376" height="108" fill="none"/>
    </clipPath>
  </defs>
  <g id="Group_4783" data-name="Group 4783" clip-path="url(#clip-path)">
    <path id="Path_7422" data-name="Path 7422" d="M157.817,165.519a1.861,1.861,0,0,0,.565.664,2.452,2.452,0,0,0,.827.377,3.915,3.915,0,0,0,.984.123,5.115,5.115,0,0,0,.736-.058,2.607,2.607,0,0,0,.738-.221,1.622,1.622,0,0,0,.573-.45,1.138,1.138,0,0,0,.23-.73,1.029,1.029,0,0,0-.3-.77,2.4,2.4,0,0,0-.794-.491,7.874,7.874,0,0,0-1.115-.344q-.623-.148-1.262-.328a11.1,11.1,0,0,1-1.279-.4,4.426,4.426,0,0,1-1.114-.614,2.907,2.907,0,0,1-.794-.942,2.854,2.854,0,0,1-.3-1.369,3.074,3.074,0,0,1,.385-1.565,3.512,3.512,0,0,1,1.007-1.106,4.415,4.415,0,0,1,1.41-.656,6.021,6.021,0,0,1,1.572-.213,7.452,7.452,0,0,1,1.763.206,4.4,4.4,0,0,1,1.5.663,3.372,3.372,0,0,1,1.041,1.173,3.6,3.6,0,0,1,.385,1.728h-2.491a2.075,2.075,0,0,0-.221-.868,1.445,1.445,0,0,0-.5-.541,2.118,2.118,0,0,0-.712-.278,4.341,4.341,0,0,0-.876-.082,3.014,3.014,0,0,0-.623.065,1.668,1.668,0,0,0-.565.229,1.444,1.444,0,0,0-.419.409,1.108,1.108,0,0,0-.163.623,1.052,1.052,0,0,0,.13.557,1.17,1.17,0,0,0,.517.394,6.6,6.6,0,0,0,1.065.361c.454.12,1.045.273,1.778.459.219.044.52.122.909.237a4.361,4.361,0,0,1,1.155.55,3.506,3.506,0,0,1,.992,1.008,2.873,2.873,0,0,1,.416,1.613,3.569,3.569,0,0,1-.31,1.491,3.226,3.226,0,0,1-.926,1.188,4.454,4.454,0,0,1-1.524.779,7.2,7.2,0,0,1-2.106.279,7.418,7.418,0,0,1-1.877-.238,4.71,4.71,0,0,1-1.605-.746,3.685,3.685,0,0,1-1.106-1.294,3.853,3.853,0,0,1-.392-1.868h2.49a2.141,2.141,0,0,0,.213,1" transform="translate(-77.12 -77.772)" fill="#c11d2a"/>
    <path id="Path_7423" data-name="Path 7423" d="M182.347,156.98l4.376,11.7h-2.672l-.885-2.606h-4.375l-.918,2.606h-2.589l4.424-11.7Zm.147,7.177-1.474-4.294h-.033l-1.524,4.294Z" transform="translate(-87.149 -78.048)" fill="#c11d2a"/>
    <path id="Path_7424" data-name="Path 7424" d="M199.042,159.525a7.342,7.342,0,0,1,.394-2.426,5.8,5.8,0,0,1,1.131-1.966,5.162,5.162,0,0,1,1.8-1.311,5.9,5.9,0,0,1,2.426-.476,5.7,5.7,0,0,1,1.744.27,4.862,4.862,0,0,1,1.515.8,4.5,4.5,0,0,1,1.123,1.294,4.3,4.3,0,0,1,.55,1.769h-2.458a2.456,2.456,0,0,0-.885-1.474,2.577,2.577,0,0,0-1.589-.491,3.014,3.014,0,0,0-1.476.335,2.8,2.8,0,0,0-.983.9,3.968,3.968,0,0,0-.549,1.287,6.465,6.465,0,0,0-.171,1.491,6,6,0,0,0,.171,1.433,3.865,3.865,0,0,0,.549,1.254,2.81,2.81,0,0,0,.983.894,3,3,0,0,0,1.476.335,2.51,2.51,0,0,0,2.785-2.523h-2.59v-1.9h4.917v6.309h-1.639L208.006,164a3.941,3.941,0,0,1-1.524,1.244,4.231,4.231,0,0,1-1.687.361,5.9,5.9,0,0,1-2.426-.476,5.275,5.275,0,0,1-1.8-1.294,5.643,5.643,0,0,1-1.131-1.934,7.08,7.08,0,0,1-.394-2.375m4.014-9.291a1.09,1.09,0,0,0,.213.515,1.338,1.338,0,0,0,.4.337,1.869,1.869,0,0,0,.5.189,2.333,2.333,0,0,0,.508.057,2.391,2.391,0,0,0,1.2-.262,1.275,1.275,0,0,0,.607-.836h1.031a2.464,2.464,0,0,1-.925,1.777,3.324,3.324,0,0,1-1.991.549,2.659,2.659,0,0,1-1.844-.6,2.526,2.526,0,0,1-.762-1.729Z" transform="translate(-98.96 -74.694)" fill="#c11d2a"/>
    <path id="Path_7425" data-name="Path 7425" d="M227.359,156.979v9.536h5.7v2.164h-8.275v-11.7Z" transform="translate(-111.76 -78.047)" fill="#c11d2a"/>
    <rect id="Rectangle_1788" data-name="Rectangle 1788" width="2.573" height="11.7" transform="translate(122.743 78.932)" fill="#c11d2a"/>
    <path id="Path_7426" data-name="Path 7426" d="M256.3,156.979v4.85l4.571-4.85h3.212l-4.572,4.621,5.015,7.079H261.3l-3.523-5.261L256.3,164.91v3.77h-2.573v-11.7Z" transform="translate(-126.148 -78.047)" fill="#c11d2a"/>
    <rect id="Rectangle_1789" data-name="Rectangle 1789" width="4.223" height="29.086" transform="translate(64.324 78.914)" fill="#babcbf"/>
    <rect id="Rectangle_1790" data-name="Rectangle 1790" width="1.056" height="28.807" transform="translate(70.716 62.103)" fill="#c11d2a"/>
    <path id="Path_7427" data-name="Path 7427" d="M40.418,138.469v1.121H38.524v5.21H37.192v-5.21h-1.9v-1.121Z" transform="translate(-17.545 -68.844)"/>
    <path id="Path_7428" data-name="Path 7428" d="M46.822,136.88h1.345v3.889a2.205,2.205,0,0,0,.154.953,1.287,1.287,0,0,0,2.085,0,2.205,2.205,0,0,0,.154-.953V136.88H51.9v3.892a3.262,3.262,0,0,1-.313,1.572,2.329,2.329,0,0,1-2.225,1.031,2.341,2.341,0,0,1-2.23-1.031,3.269,3.269,0,0,1-.313-1.572Zm1.125-1.606h1.121v1.018H47.947Zm1.718,0h1.121v1.018H49.665Z" transform="translate(-23.279 -67.256)"/>
    <path id="Path_7429" data-name="Path 7429" d="M63.154,138.632a1.562,1.562,0,0,1,.593.442,1.974,1.974,0,0,1,.319.532,1.78,1.78,0,0,1,.117.666,1.89,1.89,0,0,1-.228.887,1.274,1.274,0,0,1-.752.616,1.186,1.186,0,0,1,.621.5,2.092,2.092,0,0,1,.182.991v.425a3.152,3.152,0,0,0,.035.588.527.527,0,0,0,.244.361v.159H62.825c-.04-.14-.068-.253-.085-.339a3.05,3.05,0,0,1-.056-.546l-.009-.588a1.188,1.188,0,0,0-.209-.808,1.069,1.069,0,0,0-.753-.2H60.42V144.8H59.127v-6.331h3.028a2.756,2.756,0,0,1,1,.163m-2.734.936v1.7h1.423a1.526,1.526,0,0,0,.637-.1.713.713,0,0,0,.375-.713.8.8,0,0,0-.363-.773,1.309,1.309,0,0,0-.611-.112Z" transform="translate(-29.397 -68.844)"/>
    <path id="Path_7430" data-name="Path 7430" d="M71.223,138.469h1.3v2.609l2.447-2.609H76.68l-2.6,2.6,2.731,3.727h-1.7l-1.95-2.764-.638.647V144.8h-1.3Z" transform="translate(-35.411 -68.844)"/>
    <path id="Path_7431" data-name="Path 7431" d="M0,156.943H2.466v4.943L7.1,156.943H10.34l-4.923,4.934,5.176,7.063H7.37l-3.7-5.236-1.207,1.224v4.012H0Z" transform="translate(0 -78.029)"/>
    <rect id="Rectangle_1791" data-name="Rectangle 1791" width="2.49" height="11.997" transform="translate(11.46 78.914)"/>
    <path id="Path_7432" data-name="Path 7432" d="M30.724,166.823l6.132-7.756H30.878v-2.124H39.97v2.01l-6.211,7.871h6.228v2.116H30.724Z" transform="translate(-15.275 -78.029)"/>
    <rect id="Rectangle_1792" data-name="Rectangle 1792" width="2.49" height="11.997" transform="translate(26.274 78.914)"/>
    <path id="Path_7433" data-name="Path 7433" d="M60.542,156.943h2.507v9.84h5.99v2.157h-8.5Z" transform="translate(-30.1 -78.029)"/>
    <path id="Path_7434" data-name="Path 7434" d="M82.716,156.943h2.836l4.244,12H87.079l-.791-2.466H81.869l-.813,2.466H78.434Zm-.165,7.463h3.073l-1.516-4.72Z" transform="translate(-38.996 -78.029)"/>
    <path id="Path_7435" data-name="Path 7435" d="M104.239,156.943h2.84l-4.012,7.5v4.5h-2.507v-4.5l-4.151-7.5h2.955l2.49,5.225Z" transform="translate(-47.933 -78.029)"/>
    <path id="Path_7436" data-name="Path 7436" d="M0,13.4A32.885,32.885,0,0,1,26.139,0c17.926-.311,32.7,13.337,33,30.483S45.155,61.787,27.23,62.1A32.855,32.855,0,0,1,.047,48.84a28.016,28.016,0,0,0,18,5.968c14.591-.253,26.232-11.1,26-24.222S31.806,7.028,17.215,7.282A28.084,28.084,0,0,0,0,13.4" transform="translate(0 0)" fill="#c11d2a"/>
  </g>
</svg>
